<?xml version="1.0" encoding="utf-8"?>
<!-- Generator: Adobe Illustrator 21.0.2, SVG Export Plug-In . SVG Version: 6.00 Build 0)  -->
<svg version="1.1" id="Layer_1" xmlns="http://www.w3.org/2000/svg" xmlns:xlink="http://www.w3.org/1999/xlink" x="0px" y="0px"
	 viewBox="0 0 504 504" enable-background="new 0 0 504 504" xml:space="preserve">
<g>
	<g>
		<path fill="#FFFFFF" d="M138.8,421.2c7.8,0,12.2,6.1,12.2,13.8s-4.3,13.8-12.3,13.8c-3.5,0-6.1-2.3-7.1-4.3v3.9h-5.7V410h5.7v14.9
			C133.3,422.4,136.3,421.2,138.8,421.2z M138.2,443.7c4.2,0,6.8-3.7,6.8-8.7c0-5-2.6-9-6.8-9c-4.3,0-6.7,3.9-6.7,9
			C131.6,439.9,134,443.7,138.2,443.7z"/>
		<path fill="#FFFFFF" d="M160.7,410.3h5.7v38.4h-5.7V410.3z"/>
		<path fill="#FFFFFF" d="M176,434.9c0-7.7,5.1-13.8,12.8-13.8c7.6,0,12.7,6.1,12.7,13.8c0,7.6-5.2,13.9-12.7,13.9
			C181.2,448.7,176,442.5,176,434.9z M195.9,434.9c0-5-2.8-9.2-7-9.2c-4.2,0-7.1,4.3-7.1,9.2c0,5,2.9,9.3,7.1,9.3
			C193.1,444.2,195.9,439.9,195.9,434.9z"/>
		<path fill="#FFFFFF" d="M223.8,448.7c-4.1,0-7.2-1.3-9.4-3.9c-2.2-2.7-3.3-5.9-3.3-9.9c0-3.9,1.1-7.2,3.3-9.8c2.2-2.7,5.3-4,9.4-4
			c5.6,0,9.4,2.5,11.6,7.4l-4.7,2.1c-1.4-3.1-3.8-4.7-6.9-4.7c-4.5,0-7,3.7-7,9c0,5.3,2.5,9,7,9c3,0,5.5-1.7,6.9-4.7l4.7,2.1
			C233.3,446.3,229.4,448.7,223.8,448.7z"/>
		<path fill="#FFFFFF" d="M245.1,448.7v-37.3h5.7v20.3l8.6-9.7h6.8l-9.9,11.1l10.9,15.5h-6.8l-9.7-13.7v13.7H245.1z"/>
		<path fill="#FFFFFF" d="M276.2,410.3h24.2v5.2h-18.5v13h16.2v5.2h-16.2v9.7h18.5v5.2h-24.2V410.3z"/>
		<path fill="#FFFFFF" d="M340,429.4c0,10.5-5.7,19.3-17.6,19.3H310v-38.4l13.2,0.1C334.4,410.4,340,418.9,340,429.4z M334.4,429.4
			c0-7.9-3.8-14-13.7-14h-5v28l5-0.1C330.6,443.3,334.4,437.4,334.4,429.4z"/>
		<path fill="#FFFFFF" d="M363.8,448.7c-8.6,0-14-4.6-14.2-14.5v-24.5h5.8v24.3c0,3.8,1.3,9.3,8.4,9.3c7,0,8.6-5.4,8.6-9.3v-24.3
			h5.7v24.4C378,444.1,372.4,448.7,363.8,448.7z"/>
	</g>
	<polygon fill="#FFFFFF" points="165.6,263.4 237.6,221.8 237.6,188.5 165.6,230.1 	"/>
	<polygon fill="#FFFFFF" points="237.6,88.8 237.6,55.5 108,130.3 108,133.9 108,163.6 108,196.8 108,219.3 108,230.1 237.6,155.3 
		237.6,122 136.8,180.2 136.8,147 	"/>
	<polygon fill="#FFFFFF" points="396,130.1 266.4,55.3 266.4,78.9 266.4,88.5 266.4,188.5 266.4,220.8 266.4,221.8 338.4,263.4 
		338.4,230.1 295.2,205.2 295.2,105.2 367.2,146.7 367.2,213.5 396,230.1 396,163.4 396,163.4 	"/>
	<polygon fill="#FFFFFF" points="395.7,263.2 367.2,246.7 367.2,279.6 251.9,346.2 136.8,279.8 136.8,246.7 108.2,263.3 108,263.1 
		108,263.4 108,293.7 108,296.4 252.1,379.6 280.9,363 280.7,362.8 396,296.2 396,288.3 396,263.4 396,263 	"/>
</g>
</svg>
